<svg id="English" xmlns="http://www.w3.org/2000/svg" viewBox="0 0 10.58 10.14"><defs><style>.cls-1{fill:#ededed;}</style></defs><title>open quote</title><path class="cls-1" d="M756.48,943.92a2.5,2.5,0,0,0-1.87,1.95,5.37,5.37,0,0,0-.27,1.65,1.17,1.17,0,0,0,0,.17s0,0.15,0,.3h2.1v4.24h-4.1v-3.91a7.44,7.44,0,0,1,1.13-4.44,4.2,4.2,0,0,1,3-1.79v1.83Zm6.48,0a2.16,2.16,0,0,0-1.61,1.21,5,5,0,0,0-.55,2.37c0,0.08,0,.16,0,0.23a1.33,1.33,0,0,0,0,.25H763v4.24h-4.12v-3.91a8.71,8.71,0,0,1,1-4.13,3.88,3.88,0,0,1,3.15-2.09v1.83Z" transform="translate(-752.38 -942.09)"/></svg>